<svg width="24" height="24" viewBox="0 0 24 24" fill="none" xmlns="http://www.w3.org/2000/svg">
<path d="M16.7998 8.79979C16.7998 7.5268 16.2941 6.30596 15.3939 5.40583C14.4938 4.50569 13.273 4 12 4C10.727 4 9.50615 4.50569 8.60601 5.40583C7.70588 6.30596 7.20019 7.5268 7.20019 8.79979C7.20019 14.3995 4.80029 15.9995 4.80029 15.9995H19.1997C19.1997 15.9995 16.7998 14.3995 16.7998 8.79979Z" stroke="#313D98" stroke-width="1.59993" stroke-linecap="round" stroke-linejoin="round"/>
<path d="M13.384 19.1992C13.2433 19.4417 13.0415 19.6429 12.7986 19.7828C12.5557 19.9227 12.2803 19.9963 12 19.9963C11.7197 19.9963 11.4444 19.9227 11.2015 19.7828C10.9586 19.6429 10.7567 19.4417 10.6161 19.1992" stroke="#313D98" stroke-width="1.59993" stroke-linecap="round" stroke-linejoin="round"/>
</svg>
