<svg width="28" height="28" viewBox="0 0 28 28" fill="none" xmlns="http://www.w3.org/2000/svg">
<path d="M20.6465 22.0015C15.8631 22.0015 11.0796 22.0015 6.29618 22.0015C6.21702 21.9823 6.13867 21.9511 6.05868 21.9451C4.98209 21.8629 4.00775 20.7977 4.00569 19.67C3.99991 16.6133 4.0028 13.557 4.00692 10.5004C4.00734 10.3322 4.03166 10.1581 4.07661 9.99639C4.3405 9.04238 4.93962 8.45115 5.87767 8.23639C5.99395 8.20987 6.08136 8.18163 6.11311 8.02249C6.31515 7.00473 6.91056 6.36388 7.87953 6.1012C8.03663 6.05842 8.19868 6.03447 8.35866 6.00195C13.1421 6.00195 17.9256 6.00195 22.709 6.00195C22.7816 6.02078 22.8529 6.0503 22.9263 6.05671C24.0561 6.15725 24.9987 7.19981 25.0003 8.37586C25.0049 11.4103 25.002 14.4452 25.0007 17.4796C25.0007 17.5853 24.9937 17.6935 24.9735 17.797C24.7636 18.8593 24.1522 19.5224 23.1308 19.7671C22.9857 19.8017 22.9251 19.8698 22.8904 20.0276C22.6752 21.0124 22.0901 21.6396 21.1471 21.8993C20.9826 21.9438 20.8131 21.9677 20.6465 22.0015ZM13.4872 9.15832C12.5389 9.15832 11.5905 9.15832 10.6421 9.15832C9.24022 9.15832 7.8383 9.15575 6.43638 9.1596C5.59234 9.16217 4.96271 9.74912 4.96106 10.5521C4.9557 13.5677 4.95652 16.5833 4.96064 19.5994C4.96147 20.2 5.37957 20.7575 5.94282 20.9025C6.16589 20.9598 6.40421 20.9727 6.63594 20.9731C11.0961 20.9769 15.5559 20.9765 20.0161 20.9748C20.256 20.9748 20.4964 20.9654 20.7364 20.9517C21.4246 20.9119 21.9829 20.3044 21.9833 19.584C21.9858 16.5752 21.9895 13.5669 21.975 10.5581C21.9738 10.3091 21.8806 10.0358 21.7578 9.818C21.4823 9.33158 21.0242 9.15875 20.4973 9.15832C18.1602 9.15789 15.8235 9.15832 13.4872 9.15832ZM7.08621 8.16024C7.18146 8.16024 7.27506 8.16024 7.36865 8.16024C11.7526 8.16024 16.1364 8.15939 20.5203 8.16281C20.7179 8.16281 20.9182 8.18591 21.1116 8.22741C22.227 8.46698 22.9609 9.54463 22.9473 10.5958C22.9279 12.0713 22.9428 13.5468 22.9428 15.0223C22.9428 16.1769 22.9424 17.332 22.9432 18.4867C22.9432 18.7977 22.9898 18.8302 23.2628 18.6882C23.7691 18.4246 24.0421 17.9921 24.0433 17.4065C24.0495 14.4268 24.0487 11.4471 24.0408 8.46741C24.0404 8.26677 23.9971 8.05115 23.9175 7.86933C23.6421 7.24131 23.1283 7.02484 22.4925 7.02527C17.8604 7.02826 13.2291 7.02612 8.59781 7.0304C8.38711 7.0304 8.17023 7.05179 7.96777 7.10869C7.5039 7.23789 7.11177 7.70976 7.08621 8.16024Z" fill="#77869E" stroke="#77869E" stroke-width="0.7"/>
<path d="M11.6615 12.358C10.0472 12.358 8.43255 12.3537 6.81827 12.3632C6.60551 12.3644 6.5449 12.2994 6.55562 12.0847C6.57211 11.7505 6.56964 11.4147 6.55644 11.0802C6.54861 10.8876 6.61664 10.838 6.79353 10.8389C8.07135 10.8453 9.34916 10.8423 10.627 10.8423C12.5851 10.8423 14.5429 10.8423 16.501 10.8423C16.7905 10.8423 16.7905 10.8427 16.7905 11.1503C16.7905 11.478 16.7814 11.8066 16.7942 12.1339C16.8012 12.3178 16.7328 12.3619 16.5674 12.361C14.9317 12.3563 13.2968 12.358 11.6615 12.358Z" fill="#77869E"/>
<path d="M17.3216 16.7102C17.6585 16.696 17.9574 16.8098 18.2217 17.0177C18.3228 17.0973 18.39 17.0892 18.4914 17.0165C19.516 16.2802 20.8355 16.9228 20.9035 18.2169C20.9427 18.9621 20.4491 19.6355 19.6917 19.8011C19.2637 19.8948 18.8724 19.7989 18.5236 19.5384C18.3945 19.4421 18.312 19.449 18.185 19.541C17.3406 20.1532 16.1856 19.748 15.8785 18.7388C15.5696 17.7228 16.2912 16.7089 17.3216 16.7102ZM17.8593 18.2862C17.8638 17.9508 17.6453 17.7078 17.3356 17.7035C17.0317 17.6997 16.7963 17.9341 16.7909 18.246C16.7852 18.575 17.0058 18.8201 17.3183 18.8325C17.6119 18.8445 17.8552 18.5985 17.8593 18.2862ZM18.8514 18.2627C18.8501 18.5921 19.081 18.8359 19.3903 18.8317C19.6888 18.8278 19.9189 18.584 19.9205 18.2699C19.9222 17.9461 19.6859 17.7005 19.3763 17.7035C19.0744 17.7065 18.8522 17.9431 18.8514 18.2627Z" fill="#77869E"/>
<path d="M9.08977 19.8408C8.32077 19.8408 7.55178 19.8365 6.78278 19.8442C6.61661 19.8459 6.54322 19.8006 6.55682 19.6171C6.57002 19.44 6.57043 19.2603 6.55682 19.0832C6.54239 18.8945 6.6096 18.8376 6.7902 18.8389C7.8268 18.8462 8.8634 18.8423 9.90041 18.8423C10.4084 18.8423 10.9164 18.847 11.4244 18.8397C11.5819 18.8376 11.6503 18.8859 11.64 19.0588C11.6281 19.2504 11.6293 19.4438 11.6396 19.6355C11.6483 19.7955 11.5901 19.8451 11.438 19.8438C10.655 19.8374 9.87237 19.8408 9.08977 19.8408Z" fill="#77869E"/>
<path d="M8.31538 17.7022C7.79996 17.7022 7.28455 17.6967 6.76914 17.7057C6.60668 17.7082 6.5473 17.6547 6.5572 17.4853C6.56875 17.2864 6.56421 17.0862 6.55844 16.8868C6.55473 16.7602 6.59926 16.7076 6.72543 16.708C7.79749 16.7106 8.86955 16.7106 9.94161 16.708C10.0649 16.7076 10.1152 16.7551 10.1115 16.8843C10.1053 17.0836 10.1016 17.2838 10.1127 17.4828C10.1218 17.6488 10.0686 17.7086 9.90326 17.7061C9.37383 17.6967 8.8444 17.7022 8.31538 17.7022Z" fill="#77869E"/>
</svg>
