<svg width="24" height="24" viewBox="0 0 24 24" fill="none" xmlns="http://www.w3.org/2000/svg">
<path d="M15.0002 9.99891L19.5537 7.72267C19.7062 7.64649 19.8755 7.61053 20.0458 7.6182C20.216 7.62587 20.3815 7.67691 20.5264 7.76648C20.6714 7.85604 20.7911 7.98117 20.8741 8.12998C20.9572 8.27879 21.0008 8.44635 21.0009 8.61676V15.3815C21.0008 15.5519 20.9572 15.7195 20.8741 15.8683C20.7911 16.0171 20.6714 16.1422 20.5264 16.2318C20.3815 16.3214 20.216 16.3724 20.0458 16.3801C19.8755 16.3877 19.7062 16.3518 19.5537 16.2756L15.0002 13.9993V9.99891Z" stroke="white" stroke-width="1.6" stroke-linecap="round" stroke-linejoin="round"/>
<path d="M13.0001 5.99805H4.99924C3.89455 5.99805 2.99902 6.89357 2.99902 7.99826V15.9991C2.99902 17.1038 3.89455 17.9993 4.99924 17.9993H13.0001C14.1048 17.9993 15.0003 17.1038 15.0003 15.9991V7.99826C15.0003 6.89357 14.1048 5.99805 13.0001 5.99805Z" stroke="white" stroke-width="1.6" stroke-linecap="round" stroke-linejoin="round"/>
<path d="M6.99939 12H10.9998" stroke="white" stroke-width="1.6" stroke-linecap="round" stroke-linejoin="round"/>
<path d="M8.99976 9.99805V13.9985" stroke="white" stroke-width="1.6" stroke-linecap="round" stroke-linejoin="round"/>
</svg>
