<svg width="30" height="30" viewBox="0 0 30 30" fill="none" xmlns="http://www.w3.org/2000/svg">
<rect width="30" height="30" rx="8" fill="#DFE7F5"/>
<path d="M19.7998 11.7998C19.7998 10.5268 19.2941 9.30596 18.3939 8.40583C17.4938 7.50569 16.273 7 15 7C13.727 7 12.5061 7.50569 11.606 8.40583C10.7059 9.30596 10.2002 10.5268 10.2002 11.7998C10.2002 17.3995 7.80029 18.9995 7.80029 18.9995H22.1997C22.1997 18.9995 19.7998 17.3995 19.7998 11.7998Z" stroke="#313D98" stroke-width="1.59993" stroke-linecap="round" stroke-linejoin="round"/>
<path d="M16.384 22.1992C16.2433 22.4417 16.0415 22.6429 15.7986 22.7828C15.5557 22.9227 15.2803 22.9963 15 22.9963C14.7197 22.9963 14.4444 22.9227 14.2015 22.7828C13.9586 22.6429 13.7567 22.4417 13.6161 22.1992" stroke="#313D98" stroke-width="1.59993" stroke-linecap="round" stroke-linejoin="round"/>
</svg>
