<svg width="24" height="24" viewBox="0 0 24 24" fill="none" xmlns="http://www.w3.org/2000/svg">
<path d="M19.7273 10.3636C19.7273 16.0909 12.3636 21 12.3636 21C12.3636 21 5 16.0909 5 10.3636C5 8.41068 5.77581 6.53771 7.15676 5.15676C8.53771 3.77581 10.4107 3 12.3636 3C14.3166 3 16.1896 3.77581 17.5705 5.15676C18.9515 6.53771 19.7273 8.41068 19.7273 10.3636Z" stroke="white" stroke-width="1.63636" stroke-linecap="round" stroke-linejoin="round"/>
<path d="M12.3636 12.8192C13.7192 12.8192 14.8181 11.7203 14.8181 10.3647C14.8181 9.00909 13.7192 7.91016 12.3636 7.91016C11.008 7.91016 9.90906 9.00909 9.90906 10.3647C9.90906 11.7203 11.008 12.8192 12.3636 12.8192Z" stroke="white" stroke-width="1.63636" stroke-linecap="round" stroke-linejoin="round"/>
</svg>
