<svg width="28" height="28" viewBox="0 0 28 28" fill="none" xmlns="http://www.w3.org/2000/svg">
<path d="M13.0176 3.5L20.6357 5.894C20.8482 5.96072 21.0339 6.09401 21.1657 6.2744C21.2975 6.4548 21.3686 6.67286 21.3685 6.89675V8.75H23.4562C23.7331 8.75 23.9986 8.86062 24.1943 9.05754C24.3901 9.25445 24.5001 9.52152 24.5001 9.8V18.2C24.5001 18.4785 24.3901 18.7455 24.1943 18.9425C23.9986 19.1394 23.7331 19.25 23.4562 19.25L20.095 19.251C19.691 19.7865 19.2004 20.259 18.6336 20.6475L13.0176 24.5L7.40166 20.6486C6.55877 20.0705 5.86902 19.2941 5.39238 18.3868C4.91574 17.4795 4.66664 16.4689 4.66675 15.4427V6.89675C4.66687 6.67304 4.73803 6.45521 4.86984 6.27503C5.00166 6.09484 5.18724 5.96172 5.39954 5.89505L13.0176 3.5ZM13.0176 5.6987L6.75447 7.6685V15.4427C6.75432 16.0855 6.90087 16.7198 7.18283 17.2967C7.46479 17.8736 7.87464 18.3777 8.3808 18.7701L8.57809 18.913L13.0176 21.959L16.9655 19.25H11.9738C11.6969 19.25 11.4314 19.1394 11.2356 18.9425C11.0399 18.7455 10.9299 18.4785 10.9299 18.2V9.8C10.9299 9.52152 11.0399 9.25445 11.2356 9.05754C11.4314 8.86062 11.6969 8.75 11.9738 8.75H19.2808V7.6685L13.0176 5.6987ZM13.0176 14V17.15H22.4124V14H13.0176ZM13.0176 11.9H22.4124V10.85H13.0176V11.9Z" fill="#77869E" stroke="white" stroke-width="0.2"/>
</svg>
