<svg width="28" height="28" viewBox="0 0 28 28" fill="none" xmlns="http://www.w3.org/2000/svg">
<path d="M22.8146 10.8285C16.9209 10.8285 11.0687 10.8285 5.20072 10.8285C5.19599 10.9249 5.18864 11.0075 5.18864 11.0902C5.18811 13.6778 5.18811 16.2649 5.18811 18.8525C5.18811 19.4282 5.4014 19.6322 5.99029 19.6322C8.05328 19.6317 10.1157 19.6317 12.1787 19.6327C12.609 19.6327 12.899 19.8745 12.9058 20.2345C12.9131 20.6093 12.6284 20.8638 12.1814 20.8643C10.0664 20.8669 7.95084 20.871 5.83585 20.8628C4.71794 20.8587 3.9063 20.0621 3.90472 18.9723C3.89999 15.2822 3.90052 11.592 3.90472 7.90181C3.90577 6.79159 4.74158 6.01082 5.9199 6.00929C8.58597 6.00623 11.2515 6.00725 13.9176 6.00725C16.6183 6.00725 19.3196 6.02561 22.0203 6.00011C23.3426 5.98787 24.1096 6.96447 24.0959 7.99768C24.0607 10.7118 24.0849 13.4269 24.0828 16.1415C24.0823 16.6606 23.6047 16.9737 23.1598 16.7504C22.8966 16.6183 22.812 16.3939 22.8131 16.116C22.8173 14.8859 22.8146 13.6558 22.8146 12.4258C22.8146 11.9015 22.8146 11.3768 22.8146 10.8285ZM5.19599 9.54647C11.0829 9.54647 16.9346 9.54647 22.8146 9.54647C22.8146 9.00029 22.8183 8.47553 22.8136 7.95127C22.8094 7.47955 22.5683 7.25261 22.0839 7.25261C17.9574 7.25261 13.8314 7.2521 9.70493 7.2521C8.42837 7.2521 7.15233 7.25108 5.87577 7.25261C5.49963 7.25312 5.21385 7.44538 5.20229 7.75748C5.18023 8.34854 5.19599 8.94113 5.19599 9.54647Z" fill="#77869E" stroke="#77869E" stroke-width="0.5" stroke-linecap="round" stroke-linejoin="round"/>
<path d="M22.6211 18.3252L15.1742 18.3252" stroke="#77869E" stroke-width="1.7" stroke-linecap="round" stroke-linejoin="round"/>
<path d="M15.1743 18.3253L17.4019 16.0977" stroke="#77869E" stroke-width="1.7" stroke-linecap="round" stroke-linejoin="round"/>
<path d="M15.0095 20.8066L22.4564 20.8066" stroke="#77869E" stroke-width="1.7" stroke-linecap="round" stroke-linejoin="round"/>
<path d="M22.4563 20.8069L20.3286 22.9346" stroke="#77869E" stroke-width="1.7" stroke-linecap="round" stroke-linejoin="round"/>
</svg>
