<svg width="28" height="28" viewBox="0 0 28 28" fill="none" xmlns="http://www.w3.org/2000/svg">
<path d="M21.1999 13.9741C21.2038 17.6295 18.1674 20.6032 14.4279 20.6061C10.6924 20.6089 7.64478 17.6371 7.63746 13.9845C7.63015 10.341 10.6827 7.3554 14.4172 7.35254C18.1571 7.35016 21.1955 10.3167 21.1999 13.9741ZM14.4548 8.42037C11.3832 8.37604 8.78588 10.8502 8.73953 13.8649C8.69172 16.984 11.1964 19.4987 14.3909 19.5387C17.4644 19.5773 20.0627 17.1046 20.112 14.0942C20.1627 10.9846 17.6517 8.46662 14.4548 8.42037Z" fill="#77869E" stroke="#77869E" stroke-width="0.4"/>
<path d="M14.813 17.9996V17.3779C15.9714 17.2719 16.6516 16.5811 16.6516 15.4896C16.6516 14.5594 16.1693 14.0021 15.1634 13.7027L14.813 13.606V11.354C15.4232 11.4369 15.8313 11.8744 15.8478 12.4455H16.5486C16.5197 11.4507 15.8436 10.7369 14.813 10.6402V10H14.2606V10.6448C13.2094 10.7599 12.554 11.4461 12.554 12.4547C12.554 13.3113 13.0486 13.9146 13.9308 14.1725L14.2606 14.2738V16.6686C13.5804 16.5765 13.1599 16.1666 13.1146 15.5495H12.4097C12.4138 16.5765 13.1476 17.2904 14.2606 17.3825V17.9996H14.813ZM15.9385 15.5541C15.9385 16.2265 15.5303 16.641 14.813 16.6824V14.3982C15.5922 14.5824 15.9385 14.9462 15.9385 15.5541ZM13.263 12.4086C13.263 11.8283 13.6835 11.3908 14.2606 11.354V13.4725C13.6093 13.3205 13.263 12.9567 13.263 12.4086Z" fill="#77869E" stroke="#77869E" stroke-width="0.6"/>
<path d="M23.1191 13.1824C23.0171 12.6742 22.9444 12.1584 22.8078 11.6597C21.8438 8.14256 18.764 5.49014 15.0568 5.13404C11.2803 4.77126 8.32776 6.21474 6.22851 9.3086C6.16997 9.39441 6.11874 9.48498 6.06167 9.57175C5.86994 9.86159 5.55869 9.94454 5.28744 9.77959C5.02643 9.62085 4.95618 9.31337 5.12254 9.02925C5.57722 8.25269 6.12655 7.54429 6.77881 6.91694C8.42533 5.33283 10.3933 4.34746 12.6868 4.08241C16.0964 3.68817 19.0313 4.70929 21.4174 7.12717C23.0723 8.80424 23.9694 10.8374 24.1875 13.1566C24.1924 13.2095 24.2007 13.262 24.2134 13.3654C24.3802 13.159 24.5168 12.986 24.6583 12.8162C24.8822 12.5483 25.2047 12.4949 25.451 12.6818C25.7125 12.8806 25.7394 13.1957 25.5115 13.4813C25.0764 14.0261 24.6393 14.5696 24.1992 15.1107C23.9031 15.4744 23.5416 15.4815 23.2396 15.1288C22.78 14.593 22.3244 14.0538 21.8697 13.5137C21.6223 13.22 21.6321 12.8982 21.8873 12.6918C22.14 12.4873 22.4576 12.5431 22.7161 12.8372C22.8244 12.9607 22.9322 13.0846 23.0401 13.2086C23.0654 13.201 23.0923 13.1914 23.1191 13.1824Z" fill="#77869E" stroke="#77869E" stroke-width="0.4"/>
<path d="M4.96443 14.7477C4.99858 15.7545 5.23422 16.7008 5.66256 17.5908C7.05246 20.4764 9.35563 22.2311 12.5726 22.7841C16.0593 23.3838 19.7977 21.7273 21.6774 18.7983C21.755 18.6773 21.8287 18.5533 21.9111 18.4356C22.1004 18.1643 22.4117 18.0938 22.6751 18.2573C22.9366 18.4198 23.0025 18.724 22.8302 19.009C22.0243 20.3453 20.9764 21.4708 19.6343 22.296C16.3432 24.3187 12.8945 24.5746 9.40832 22.8766C6.3919 21.4079 4.58976 18.9652 3.94286 15.7245C3.90725 15.5457 3.87944 15.3646 3.85554 15.1839C3.83163 15.0042 3.81651 14.8235 3.79163 14.588C3.62332 14.7964 3.4872 14.9699 3.34621 15.1386C3.12034 15.4085 2.80079 15.4628 2.55345 15.2774C2.29049 15.08 2.26122 14.7639 2.48856 14.4789C2.92812 13.9273 3.36914 13.3772 3.81456 12.8304C4.09702 12.4838 4.46682 12.4824 4.76002 12.8256C5.22397 13.3681 5.68549 13.9125 6.14407 14.4593C6.38019 14.7406 6.36605 15.059 6.11822 15.2626C5.87185 15.4647 5.55181 15.418 5.30447 15.1405C5.18885 15.0114 5.07762 14.8788 4.96443 14.7477Z" fill="#77869E" stroke="#77869E" stroke-width="0.4"/>
</svg>
