<svg width="22" height="22" viewBox="0 0 22 22" fill="none" xmlns="http://www.w3.org/2000/svg">
<path fill-rule="evenodd" clip-rule="evenodd" d="M2.91436 0C1.30737 0 0 1.30595 0 2.91117C0 4.5171 1.30737 5.82354 2.91436 5.82354C4.52008 5.82354 5.82638 4.51703 5.82638 2.91117C5.82645 1.30595 4.52008 0 2.91436 0ZM5.12103 7.05341H0.704497C0.508484 7.05341 0.349658 7.21231 0.349658 7.40825V21.5967C0.349658 21.7927 0.508484 21.9515 0.704497 21.9515H5.12103C5.31705 21.9515 5.47587 21.7927 5.47587 21.5967V7.40825C5.47587 7.21231 5.31705 7.05341 5.12103 7.05341ZM12.4744 8.32977C13.2697 7.46332 14.581 6.70077 16.3548 6.70077C21.3293 6.70077 22 10.2966 22 13.8142V21.5968C22 21.7928 21.8412 21.9516 21.6452 21.9516H17.2366C17.0406 21.9516 16.8818 21.7928 16.8818 21.5968V14.6984C16.8818 12.767 16.7391 11.2895 14.9432 11.2895C13.2942 11.2895 12.6516 12.2111 12.6516 14.5767V21.5967C12.6516 21.7927 12.4928 21.9515 12.2968 21.9515H7.88991C7.6939 21.9515 7.53507 21.7927 7.53507 21.5967V7.40825C7.53507 7.21231 7.6939 7.05341 7.88991 7.05341H12.1195C12.3155 7.05341 12.4744 7.21231 12.4744 7.40825V8.32977Z" fill="white"/>
</svg>
