<svg width="100" height="100" viewBox="0 0 100 100" fill="none" xmlns="http://www.w3.org/2000/svg">
<circle cx="50.0001" cy="49.9998" r="31.8182" fill="#DFE7F5"/>
<path d="M90.909 49.9999C90.909 72.5934 72.5934 90.909 49.9999 90.909C27.4064 90.909 9.09082 72.5934 9.09082 49.9999C9.09082 27.4064 27.4064 9.09082 49.9999 9.09082C72.5934 9.09082 90.909 27.4064 90.909 49.9999ZM11.4036 49.9999C11.4036 71.3161 28.6837 88.5963 49.9999 88.5963C71.3161 88.5963 88.5963 71.3161 88.5963 49.9999C88.5963 28.6837 71.3161 11.4036 49.9999 11.4036C28.6837 11.4036 11.4036 28.6837 11.4036 49.9999Z" fill="#DFE7F5"/>
<path d="M100 50C100 77.6142 77.6142 100 50 100C22.3858 100 0 77.6142 0 50C0 22.3858 22.3858 0 50 0C77.6142 0 100 22.3858 100 50ZM2.03997 50C2.03997 76.4876 23.5124 97.96 50 97.96C76.4876 97.96 97.96 76.4876 97.96 50C97.96 23.5124 76.4876 2.03997 50 2.03997C23.5124 2.03997 2.03997 23.5124 2.03997 50Z" fill="#DFE7F5"/>
<path d="M38.3333 38.667H45L48.3333 47.0003L44.1667 49.5003C45.9516 53.1195 48.8808 56.0487 52.5 57.8337L55 53.667L63.3333 57.0003V63.667C63.3333 64.551 62.9821 65.3989 62.357 66.024C61.7319 66.6491 60.8841 67.0003 60 67.0003C53.4988 66.6052 47.3669 63.8445 42.7614 59.2389C38.1558 54.6334 35.3951 48.5016 35 42.0003C35 41.1163 35.3512 40.2684 35.9763 39.6433C36.6014 39.0182 37.4493 38.667 38.3333 38.667" stroke="#313D98" stroke-width="2.5" stroke-linecap="round" stroke-linejoin="round"/>
<path d="M54.3333 43C55.5709 43 56.7579 43.4917 57.6331 44.3668C58.5083 45.242 58.9999 46.429 58.9999 47.6667" stroke="#313D98" stroke-width="2.5" stroke-linecap="round" stroke-linejoin="round"/>
<path d="M54 36C57.1826 36 60.2348 37.2643 62.4853 39.5147C64.7357 41.7652 66 44.8174 66 48" stroke="#313D98" stroke-width="2.5" stroke-linecap="round" stroke-linejoin="round"/>
</svg>
