<svg width="32" height="32" viewBox="0 0 32 32" fill="none" xmlns="http://www.w3.org/2000/svg">
<path d="M26.7591 24.2963V24.4463H26.909H28.1481C28.7198 24.4463 29.1833 24.9098 29.1833 25.4815C29.1833 26.0532 28.7198 26.5167 28.1481 26.5167H3.85181C3.28009 26.5167 2.81663 26.0532 2.81663 25.4815C2.81663 24.9098 3.28009 24.4463 3.85181 24.4463H5.09087H5.24087V24.2963V6.51856C5.24087 6.24511 5.35193 5.98217 5.55076 5.78776C5.7497 5.59324 6.02022 5.48337 6.30299 5.48337H18.4242C18.707 5.48337 18.9775 5.59324 19.1764 5.78776C19.3753 5.98217 19.4863 6.24511 19.4863 6.51856V12.2945V12.4445V14.8149V14.9649V24.2963V24.4463H19.6363H24.4848H24.6348V24.2963V14.8149V14.6649H24.4848H19.7863V12.5945H25.6969C25.9797 12.5945 26.2502 12.7043 26.4492 12.8989C26.648 13.0933 26.7591 13.3562 26.7591 13.6297V24.2963ZM7.51511 7.55374H7.36511V7.70374V24.2963V24.4463H7.51511H17.2121H17.3621V24.2963V7.70374V7.55374H17.2121H7.51511ZM10.0894 16C10.0894 15.4283 10.5528 14.9649 11.1245 14.9649H13.6027C14.1744 14.9649 14.6378 15.4283 14.6378 16C14.6378 16.5718 14.1744 17.0352 13.6027 17.0352H11.1245C10.5528 17.0352 10.0894 16.5718 10.0894 16ZM10.0894 11.2593C10.0894 10.6876 10.5528 10.2241 11.1245 10.2241H13.6027C14.1744 10.2241 14.6378 10.6876 14.6378 11.2593C14.6378 11.831 14.1744 12.2945 13.6027 12.2945H11.1245C10.5528 12.2945 10.0894 11.831 10.0894 11.2593Z" fill="#313D98" stroke="white" stroke-width="0.3"/>
</svg>
