<svg width="100" height="100" viewBox="0 0 100 100" fill="none" xmlns="http://www.w3.org/2000/svg">
<circle cx="50.0001" cy="50" r="31.8182" fill="#DFE7F5"/>
<path d="M90.909 50C90.909 72.5934 72.5934 90.9091 49.9999 90.9091C27.4064 90.9091 9.09082 72.5934 9.09082 50C9.09082 27.4065 27.4064 9.09088 49.9999 9.09088C72.5934 9.09088 90.909 27.4065 90.909 50ZM13.8939 50C13.8939 69.9408 30.0591 86.106 49.9999 86.106C69.9407 86.106 86.1059 69.9408 86.1059 50C86.1059 30.0592 69.9407 13.894 49.9999 13.894C30.0591 13.894 13.8939 30.0592 13.8939 50Z" fill="#DFE7F5"/>
<path d="M100 50C100 77.6142 77.6142 100 50 100C22.3858 100 0 77.6142 0 50C0 22.3858 22.3858 0 50 0C77.6142 0 100 22.3858 100 50ZM4.83913 50C4.83913 74.9417 25.0583 95.1609 50 95.1609C74.9417 95.1609 95.1609 74.9417 95.1609 50C95.1609 25.0583 74.9417 4.83913 50 4.83913C25.0583 4.83913 4.83913 25.0583 4.83913 50Z" fill="#DFE7F5"/>
<path d="M48.5645 30.6818L63.8414 35.6046C64.2675 35.7417 64.6399 36.0158 64.9043 36.3868C65.1686 36.7577 65.3111 37.2061 65.3109 37.6665V41.4773H69.4975C70.0527 41.4773 70.5852 41.7048 70.9777 42.1097C71.3703 42.5146 71.5908 43.0637 71.5908 43.6364V60.9091C71.5908 61.4817 71.3703 62.0309 70.9777 62.4358C70.5852 62.8407 70.0527 63.0682 69.4975 63.0682L62.7571 63.0703C61.947 64.1715 60.9632 65.1431 59.8265 65.9419L48.5645 73.8636L37.3026 65.9441C35.6123 64.7554 34.2291 63.1589 33.2733 61.2932C32.3174 59.4276 31.8179 57.3494 31.8181 55.2393V37.6665C31.8184 37.2065 31.9611 36.7586 32.2254 36.3881C32.4897 36.0175 32.8619 35.7438 33.2876 35.6067L48.5645 30.6818ZM48.5645 35.203L36.0047 39.2534V55.2393C36.0044 56.5612 36.2983 57.8655 36.8637 59.0517C37.4292 60.238 38.2511 61.2745 39.2661 62.0815L39.6617 62.3751L48.5645 68.6386L56.4814 63.0682H46.4712C45.916 63.0682 45.3836 62.8407 44.991 62.4358C44.5985 62.0309 44.3779 61.4817 44.3779 60.9091V43.6364C44.3779 43.0637 44.5985 42.5146 44.991 42.1097C45.3836 41.7048 45.916 41.4773 46.4712 41.4773H61.1243V39.2534L48.5645 35.203ZM48.5645 52.2727V58.75H67.4042V52.2727H48.5645ZM48.5645 47.9546H67.4042V45.7955H48.5645V47.9546Z" fill="#313D98" stroke="#DFE7F5" stroke-width="1.70455"/>
</svg>
