<svg width="216" height="64" viewBox="0 0 216 64" fill="none" xmlns="http://www.w3.org/2000/svg">
<path d="M208.315 64H7.5664C3.3952 64 0 60.5952 0 56.4272V7.5616C0 3.392 3.3952 0 7.5664 0H208.315C212.485 0 216 3.392 216 7.5616V56.4272C216 60.5952 212.485 64 208.315 64Z" fill="#A6A6A6"/>
<path d="M214.452 56.4286C214.452 59.8142 211.71 62.5566 208.318 62.5566H7.56733C4.17693 62.5566 1.42493 59.8142 1.42493 56.4286V7.55983C1.42493 4.17583 4.17693 1.42383 7.56733 1.42383H208.316C211.71 1.42383 214.451 4.17583 214.451 7.55983L214.452 56.4286Z" fill="black"/>
<path d="M48.2035 31.653C48.1571 26.4962 52.4259 23.9874 52.6211 23.8706C50.2035 20.3458 46.4563 19.8642 45.1395 19.8258C41.9923 19.4946 38.9395 21.709 37.3363 21.709C35.7011 21.709 33.2323 19.8578 30.5715 19.9122C27.1475 19.965 23.9443 21.9474 22.1875 25.0258C18.5619 31.3026 21.2659 40.5266 24.7395 45.6002C26.4771 48.085 28.5075 50.8594 31.1651 50.7618C33.7651 50.6546 34.7363 49.1042 37.8739 49.1042C40.9827 49.1042 41.8947 50.7618 44.6051 50.6994C47.3955 50.6546 49.1523 48.2034 50.8291 45.6962C52.8371 42.8482 53.6435 40.0434 53.6755 39.8994C53.6099 39.877 48.2563 37.8338 48.2035 31.653Z" fill="white"/>
<path d="M43.0833 16.4887C44.4817 14.7399 45.4385 12.3607 45.1729 9.94629C43.1489 10.0359 40.6177 11.3463 39.1601 13.0567C37.8705 14.5639 36.7185 17.0343 37.0161 19.3575C39.2897 19.5271 41.6241 18.2103 43.0833 16.4887Z" fill="white"/>
<path d="M85.8322 50.4061H82.1986L80.2082 44.1517H73.2898L71.3938 50.4061H67.8562L74.7106 29.1133H78.9442L85.8322 50.4061ZM79.6082 41.5277L77.8082 35.9677C77.6178 35.3997 77.261 34.0621 76.7346 31.9565H76.6706C76.461 32.8621 76.1234 34.1997 75.6594 35.9677L73.8914 41.5277H79.6082Z" fill="white"/>
<path d="M103.46 42.5405C103.46 45.1517 102.755 47.2157 101.344 48.7309C100.08 50.0797 98.51 50.7533 96.6364 50.7533C94.614 50.7533 93.1612 50.0269 92.2764 48.5741H92.2124V56.6621H88.8012V40.1069C88.8012 38.4653 88.758 36.7805 88.6748 35.0525H91.6748L91.8652 37.4861H91.9292C93.0668 35.6525 94.7932 34.7373 97.11 34.7373C98.9212 34.7373 100.433 35.4525 101.643 36.8845C102.856 38.3181 103.46 40.2029 103.46 42.5405ZM99.9852 42.6653C99.9852 41.1709 99.6492 39.9389 98.974 38.9693C98.2364 37.9581 97.246 37.4525 96.0044 37.4525C95.1628 37.4525 94.398 37.7341 93.7148 38.2893C93.03 38.8493 92.582 39.5805 92.3724 40.4861C92.2668 40.9085 92.214 41.2541 92.214 41.5261V44.0861C92.214 45.2029 92.5564 46.1453 93.2412 46.9149C93.926 47.6845 94.8156 48.0685 95.91 48.0685C97.1948 48.0685 98.1948 47.5725 98.91 46.5837C99.6268 45.5933 99.9852 44.2877 99.9852 42.6653Z" fill="white"/>
<path d="M121.118 42.5405C121.118 45.1517 120.413 47.2157 119 48.7309C117.738 50.0797 116.168 50.7533 114.294 50.7533C112.272 50.7533 110.819 50.0269 109.936 48.5741H109.872V56.6621H106.461V40.1069C106.461 38.4653 106.418 36.7805 106.334 35.0525H109.334L109.525 37.4861H109.589C110.725 35.6525 112.451 34.7373 114.77 34.7373C116.579 34.7373 118.091 35.4525 119.304 36.8845C120.512 38.3181 121.118 40.2029 121.118 42.5405ZM117.643 42.6653C117.643 41.1709 117.306 39.9389 116.63 38.9693C115.893 37.9581 114.906 37.4525 113.662 37.4525C112.819 37.4525 112.056 37.7341 111.371 38.2893C110.686 38.8493 110.24 39.5805 110.03 40.4861C109.926 40.9085 109.872 41.2541 109.872 41.5261V44.0861C109.872 45.2029 110.214 46.1453 110.896 46.9149C111.581 47.6829 112.47 48.0685 113.568 48.0685C114.853 48.0685 115.853 47.5725 116.568 46.5837C117.285 45.5933 117.643 44.2877 117.643 42.6653Z" fill="white"/>
<path d="M140.863 44.4344C140.863 46.2456 140.234 47.7192 138.971 48.8568C137.584 50.1 135.653 50.7208 133.171 50.7208C130.88 50.7208 129.043 50.2792 127.653 49.3944L128.443 46.5512C129.941 47.4568 131.584 47.9112 133.375 47.9112C134.659 47.9112 135.659 47.62 136.378 47.0408C137.093 46.4616 137.45 45.684 137.45 44.7144C137.45 43.8504 137.155 43.1224 136.565 42.532C135.978 41.9416 134.997 41.3928 133.627 40.8856C129.899 39.4952 128.037 37.4584 128.037 34.78C128.037 33.0296 128.69 31.5944 129.997 30.4776C131.299 29.3592 133.037 28.8008 135.21 28.8008C137.147 28.8008 138.757 29.1384 140.042 29.812L139.189 32.5928C137.989 31.94 136.632 31.6136 135.114 31.6136C133.914 31.6136 132.976 31.9096 132.304 32.4984C131.736 33.0248 131.451 33.6664 131.451 34.4264C131.451 35.268 131.776 35.964 132.429 36.5112C132.997 37.0168 134.029 37.564 135.527 38.1544C137.359 38.892 138.704 39.7544 139.57 40.7432C140.432 41.7288 140.863 42.9624 140.863 44.4344Z" fill="white"/>
<path d="M152.141 37.6122H148.381V45.0666C148.381 46.9626 149.043 47.9098 150.371 47.9098C150.981 47.9098 151.487 47.857 151.887 47.7514L151.981 50.3418C151.309 50.593 150.424 50.7194 149.328 50.7194C147.981 50.7194 146.928 50.3082 146.168 49.4874C145.411 48.665 145.031 47.2858 145.031 45.3482V37.609H142.791V35.049H145.031V32.2378L148.381 31.2266V35.049H152.141V37.6122Z" fill="white"/>
<path d="M169.107 42.6023C169.107 44.9623 168.432 46.8999 167.085 48.4151C165.672 49.9751 163.797 50.7527 161.459 50.7527C159.206 50.7527 157.413 50.0055 156.075 48.5111C154.738 47.0167 154.069 45.1303 154.069 42.8567C154.069 40.4775 154.757 38.5287 156.138 37.0135C157.515 35.4967 159.374 34.7383 161.712 34.7383C163.965 34.7383 165.777 35.4855 167.145 36.9815C168.454 38.4327 169.107 40.3063 169.107 42.6023ZM165.568 42.7127C165.568 41.2967 165.266 40.0823 164.653 39.0695C163.938 37.8439 162.915 37.2327 161.59 37.2327C160.219 37.2327 159.178 37.8455 158.462 39.0695C157.85 40.0839 157.547 41.3175 157.547 42.7767C157.547 44.1927 157.85 45.4071 158.462 46.4183C159.2 47.6439 160.23 48.2551 161.56 48.2551C162.862 48.2551 163.885 47.6311 164.622 46.3863C165.251 45.3543 165.568 44.1271 165.568 42.7127Z" fill="white"/>
<path d="M180.192 38.0525C179.855 37.9901 179.495 37.9581 179.117 37.9581C177.917 37.9581 176.989 38.4109 176.336 39.3181C175.768 40.1181 175.484 41.1293 175.484 42.3501V50.4061H172.074L172.106 39.8877C172.106 38.1181 172.063 36.5069 171.978 35.0541H174.949L175.074 37.9917H175.168C175.528 36.9821 176.096 36.1693 176.874 35.5597C177.634 35.0109 178.455 34.7373 179.34 34.7373C179.655 34.7373 179.94 34.7597 180.192 34.7997V38.0525Z" fill="white"/>
<path d="M195.451 42.0014C195.451 42.6126 195.411 43.1278 195.326 43.5486H185.093C185.133 45.0654 185.627 46.2254 186.577 47.0254C187.44 47.7406 188.555 48.099 189.925 48.099C191.44 48.099 192.822 47.8574 194.065 47.3726L194.6 49.7406C193.147 50.3742 191.432 50.6894 189.453 50.6894C187.072 50.6894 185.203 49.9886 183.843 48.5886C182.486 47.1886 181.806 45.3086 181.806 42.9502C181.806 40.635 182.438 38.707 183.704 37.1694C185.029 35.5278 186.819 34.707 189.072 34.707C191.285 34.707 192.96 35.5278 194.097 37.1694C194.998 38.4734 195.451 40.0862 195.451 42.0014ZM192.198 41.1166C192.221 40.1054 191.998 39.2318 191.536 38.4942C190.945 37.5454 190.038 37.0718 188.817 37.0718C187.702 37.0718 186.795 37.5342 186.102 38.4622C185.534 39.1998 185.197 40.0846 185.093 41.115H192.198V41.1166Z" fill="white"/>
<path d="M78.4796 16.0149C78.4796 17.8981 77.9148 19.3157 76.7868 20.2677C75.742 21.1461 74.2572 21.5861 72.334 21.5861C71.3804 21.5861 70.5644 21.5445 69.8812 21.4613V11.1717C70.7724 11.0277 71.7324 10.9541 72.7692 10.9541C74.6012 10.9541 75.982 11.3525 76.9132 12.1493C77.9564 13.0501 78.4796 14.3381 78.4796 16.0149ZM76.7116 16.0613C76.7116 14.8405 76.3884 13.9045 75.742 13.2517C75.0956 12.6005 74.1516 12.2741 72.9084 12.2741C72.3804 12.2741 71.9308 12.3093 71.558 12.3829V20.2053C71.7644 20.2373 72.142 20.2517 72.6908 20.2517C73.974 20.2517 74.9644 19.8949 75.662 19.1813C76.3596 18.4677 76.7116 17.4277 76.7116 16.0613Z" fill="white"/>
<path d="M87.8528 17.6593C87.8528 18.8193 87.5216 19.7697 86.8592 20.5153C86.1648 21.2817 85.2448 21.6641 84.096 21.6641C82.9888 21.6641 82.1072 21.2977 81.4496 20.5617C80.7936 19.8273 80.4656 18.9009 80.4656 17.7841C80.4656 16.6161 80.8032 15.6577 81.4816 14.9137C82.16 14.1697 83.072 13.7969 84.2208 13.7969C85.328 13.7969 86.2176 14.1633 86.8912 14.8977C87.5312 15.6113 87.8528 16.5329 87.8528 17.6593ZM86.1136 17.7137C86.1136 17.0177 85.9632 16.4209 85.664 15.9233C85.312 15.3217 84.8112 15.0209 84.16 15.0209C83.4864 15.0209 82.9744 15.3217 82.6224 15.9233C82.3216 16.4209 82.1728 17.0273 82.1728 17.7441C82.1728 18.4401 82.3232 19.0369 82.6224 19.5345C82.9856 20.1361 83.4912 20.4369 84.144 20.4369C84.784 20.4369 85.2864 20.1313 85.648 19.5185C85.9584 19.0113 86.1136 18.4097 86.1136 17.7137Z" fill="white"/>
<path d="M100.425 13.9512L98.0648 21.4936H96.5288L95.5512 18.2184C95.3032 17.4008 95.1016 16.588 94.9448 15.7816H94.9144C94.7688 16.6104 94.5672 17.4216 94.308 18.2184L93.2696 21.4936H91.716L89.4968 13.9512H91.22L92.0728 17.5368C92.2792 18.3848 92.4488 19.1928 92.5848 19.9576H92.6152C92.74 19.3272 92.9464 18.524 93.2376 17.5528L94.308 13.9528H95.6744L96.7 17.476C96.948 18.3352 97.1496 19.1624 97.3048 19.9592H97.3512C97.4648 19.1832 97.636 18.356 97.8632 17.476L98.7784 13.9528H100.425V13.9512Z" fill="white"/>
<path d="M109.117 21.4928H107.441V17.1728C107.441 15.8416 106.935 15.176 105.921 15.176C105.423 15.176 105.021 15.3584 104.709 15.7248C104.401 16.0912 104.244 16.5232 104.244 17.0176V21.4912H102.567V16.1056C102.567 15.4432 102.546 14.7248 102.506 13.9472H103.98L104.058 15.1264H104.105C104.3 14.76 104.591 14.4576 104.973 14.216C105.428 13.9344 105.937 13.792 106.493 13.792C107.197 13.792 107.783 14.0192 108.249 14.4752C108.828 15.0336 109.117 15.8672 109.117 16.9744V21.4928Z" fill="white"/>
<path d="M113.741 21.4934H112.066V10.4902H113.741V21.4934Z" fill="white"/>
<path d="M123.612 17.6593C123.612 18.8193 123.281 19.7697 122.619 20.5153C121.924 21.2817 121.003 21.6641 119.855 21.6641C118.747 21.6641 117.865 21.2977 117.209 20.5617C116.553 19.8273 116.225 18.9009 116.225 17.7841C116.225 16.6161 116.563 15.6577 117.241 14.9137C117.919 14.1697 118.831 13.7969 119.979 13.7969C121.087 13.7969 121.975 14.1633 122.651 14.8977C123.291 15.6113 123.612 16.5329 123.612 17.6593ZM121.871 17.7137C121.871 17.0177 121.721 16.4209 121.422 15.9233C121.071 15.3217 120.569 15.0209 119.919 15.0209C119.244 15.0209 118.732 15.3217 118.382 15.9233C118.081 16.4209 117.932 17.0273 117.932 17.7441C117.932 18.4401 118.083 19.0369 118.382 19.5345C118.745 20.1361 119.251 20.4369 119.903 20.4369C120.543 20.4369 121.044 20.1313 121.406 19.5185C121.718 19.0113 121.871 18.4097 121.871 17.7137Z" fill="white"/>
<path d="M131.726 21.4929H130.221L130.096 20.6241H130.049C129.534 21.3169 128.8 21.6641 127.846 21.6641C127.134 21.6641 126.558 21.4353 126.125 20.9809C125.731 20.5681 125.534 20.0545 125.534 19.4449C125.534 18.5233 125.918 17.8209 126.691 17.3345C127.462 16.8481 128.547 16.6097 129.944 16.6209V16.4801C129.944 15.4865 129.422 14.9905 128.377 14.9905C127.633 14.9905 126.978 15.1777 126.411 15.5489L126.07 14.4481C126.771 14.0145 127.637 13.7969 128.657 13.7969C130.629 13.7969 131.617 14.8369 131.617 16.9169V19.6945C131.617 20.4481 131.654 21.0481 131.726 21.4929ZM129.985 18.9009V17.7377C128.136 17.7057 127.211 18.2129 127.211 19.2577C127.211 19.6513 127.317 19.9457 127.533 20.1425C127.749 20.3393 128.024 20.4369 128.352 20.4369C128.72 20.4369 129.064 20.3201 129.377 20.0881C129.693 19.8545 129.886 19.5585 129.958 19.1953C129.976 19.1137 129.985 19.0145 129.985 18.9009Z" fill="white"/>
<path d="M141.256 21.4934H139.768L139.69 20.2822H139.643C139.168 21.2038 138.359 21.6646 137.221 21.6646C136.312 21.6646 135.555 21.3078 134.955 20.5942C134.355 19.8806 134.056 18.9542 134.056 17.8166C134.056 16.5958 134.381 15.607 135.034 14.8518C135.666 14.1478 136.44 13.7958 137.362 13.7958C138.375 13.7958 139.083 14.1366 139.487 14.8198H139.519V10.4902H141.197V19.4614C141.197 20.1958 141.216 20.8726 141.256 21.4934ZM139.519 18.3126V17.055C139.519 16.8374 139.503 16.6614 139.472 16.527C139.378 16.1238 139.175 15.7846 138.866 15.511C138.554 15.2374 138.178 15.0998 137.744 15.0998C137.119 15.0998 136.629 15.3478 136.269 15.8454C135.912 16.343 135.731 16.9782 135.731 17.7542C135.731 18.4998 135.903 19.1046 136.247 19.5702C136.61 20.0662 137.099 20.3142 137.712 20.3142C138.263 20.3142 138.703 20.1078 139.037 19.6934C139.36 19.311 139.519 18.8502 139.519 18.3126Z" fill="white"/>
<path d="M155.597 17.6593C155.597 18.8193 155.265 19.7697 154.603 20.5153C153.909 21.2817 152.99 21.6641 151.84 21.6641C150.734 21.6641 149.853 21.2977 149.193 20.5617C148.537 19.8273 148.209 18.9009 148.209 17.7841C148.209 16.6161 148.547 15.6577 149.225 14.9137C149.904 14.1697 150.816 13.7969 151.966 13.7969C153.072 13.7969 153.963 14.1633 154.635 14.8977C155.275 15.6113 155.597 16.5329 155.597 17.6593ZM153.859 17.7137C153.859 17.0177 153.709 16.4209 153.409 15.9233C153.056 15.3217 152.557 15.0209 151.904 15.0209C151.232 15.0209 150.72 15.3217 150.366 15.9233C150.065 16.4209 149.917 17.0273 149.917 17.7441C149.917 18.4401 150.067 19.0369 150.366 19.5345C150.729 20.1361 151.235 20.4369 151.888 20.4369C152.528 20.4369 153.032 20.1313 153.393 19.5185C153.702 19.0113 153.859 18.4097 153.859 17.7137Z" fill="white"/>
<path d="M164.613 21.4928H162.938V17.1728C162.938 15.8416 162.432 15.176 161.416 15.176C160.918 15.176 160.517 15.3584 160.206 15.7248C159.896 16.0912 159.741 16.5232 159.741 17.0176V21.4912H158.062V16.1056C158.062 15.4432 158.043 14.7248 158.003 13.9472H159.475L159.554 15.1264H159.6C159.797 14.76 160.088 14.4576 160.469 14.216C160.925 13.9344 161.432 13.792 161.99 13.792C162.693 13.792 163.278 14.0192 163.744 14.4752C164.325 15.0336 164.613 15.8672 164.613 16.9744V21.4928Z" fill="white"/>
<path d="M175.897 15.2067H174.05V18.8707C174.05 19.8019 174.378 20.2675 175.028 20.2675C175.329 20.2675 175.578 20.2419 175.775 20.1891L175.818 21.4611C175.487 21.5859 175.052 21.6483 174.516 21.6483C173.854 21.6483 173.338 21.4467 172.966 21.0435C172.591 20.6403 172.406 19.9619 172.406 19.0099V15.2067H171.303V13.9507H172.406V12.5683L174.049 12.0723V13.9491H175.895V15.2067H175.897Z" fill="white"/>
<path d="M184.775 21.4934H183.097V17.2054C183.097 15.8534 182.591 15.1766 181.578 15.1766C180.801 15.1766 180.27 15.5686 179.978 16.3526C179.929 16.5174 179.9 16.719 179.9 16.9558V21.4918H178.225V10.4902H179.9V15.0358H179.932C180.46 14.2086 181.217 13.7958 182.198 13.7958C182.892 13.7958 183.466 14.023 183.922 14.479C184.49 15.047 184.775 15.8918 184.775 17.0086V21.4934Z" fill="white"/>
<path d="M193.931 17.3656C193.931 17.6664 193.908 17.9192 193.868 18.1256H188.839C188.862 18.8712 189.102 19.4392 189.567 19.8328C189.993 20.1848 190.542 20.3608 191.214 20.3608C191.958 20.3608 192.636 20.2424 193.247 20.004L193.51 21.1688C192.795 21.4792 191.953 21.6344 190.979 21.6344C189.811 21.6344 188.891 21.2904 188.225 20.6024C187.556 19.9144 187.225 18.9912 187.225 17.8328C187.225 16.6952 187.534 15.748 188.156 14.9928C188.806 14.1864 189.684 13.7832 190.793 13.7832C191.878 13.7832 192.702 14.1864 193.259 14.9928C193.708 15.6328 193.931 16.4248 193.931 17.3656ZM192.331 16.932C192.343 16.4344 192.233 16.0056 192.006 15.644C191.715 15.1784 191.271 14.9448 190.671 14.9448C190.124 14.9448 189.678 15.172 189.337 15.628C189.059 15.9912 188.894 16.4248 188.839 16.932H192.331Z" fill="white"/>
</svg>
