<svg width="216" height="64" viewBox="0 0 216 64" fill="none" xmlns="http://www.w3.org/2000/svg">
<path fill-rule="evenodd" clip-rule="evenodd" d="M207.997 64H8.00294C3.59219 64 0 60.393 0 56V8C0 3.59102 3.59219 0 8.00294 0H207.997C212.404 0 216 3.59102 216 8V56C216 60.393 212.404 64 207.997 64Z" fill="black"/>
<path fill-rule="evenodd" clip-rule="evenodd" d="M207.997 1.2808C211.697 1.2808 214.724 4.30125 214.724 8V56C214.724 59.6988 211.716 62.7192 207.997 62.7192H8.00294C4.30347 62.7192 1.27554 59.6988 1.27554 56V8C1.27554 4.30125 4.2836 1.2808 8.00294 1.2808H207.997ZM207.997 0H8.00294C3.59219 0 0 3.60698 0 8V56C0 60.409 3.59219 64 8.00294 64H207.997C212.404 64 216 60.409 216 56V8C216 3.60698 212.404 0 207.997 0Z" fill="#A6A6A6"/>
<path d="M113.79 21.1713C112.347 21.1713 111.131 20.6646 110.17 19.6671C109.216 18.6975 108.683 17.3609 108.707 15.9963C108.707 14.5399 109.2 13.307 110.17 12.3294C111.127 11.3319 112.343 10.8252 113.786 10.8252C115.212 10.8252 116.428 11.3319 117.406 12.3294C118.375 13.3389 118.868 14.5718 118.868 15.9963C118.852 17.4566 118.359 18.6895 117.406 19.6631C116.448 20.6686 115.232 21.1713 113.79 21.1713ZM70.87 21.1713C69.4594 21.1713 68.2355 20.6726 67.2342 19.687C66.2407 18.7055 65.7361 17.4646 65.7361 16.0003C65.7361 14.5359 66.2407 13.295 67.2342 12.3135C68.2156 11.3279 69.4395 10.8292 70.87 10.8292C71.5694 10.8292 72.2489 10.9688 72.9006 11.2521C73.5403 11.5274 74.0609 11.9025 74.4463 12.3614L74.5417 12.4771L73.4648 13.5384L73.3536 13.4067C72.7456 12.6806 71.931 12.3254 70.8542 12.3254C69.8925 12.3254 69.0541 12.6686 68.3627 13.3469C67.6673 14.0292 67.3136 14.923 67.3136 16.0042C67.3136 17.0855 67.6673 17.9793 68.3627 18.6616C69.0541 19.3399 69.8925 19.683 70.8542 19.683C71.8794 19.683 72.7416 19.3399 73.4132 18.6616C73.8106 18.2626 74.0569 17.704 74.1443 16.9978H70.6912V15.5055H75.6265L75.6464 15.6412C75.6821 15.8925 75.7179 16.1519 75.7179 16.3913C75.7179 17.7678 75.3046 18.8811 74.4861 19.703C73.5562 20.6766 72.3403 21.1713 70.87 21.1713ZM127.936 20.9599H126.414L121.753 13.4706L121.792 14.8192V20.9559H120.271V11.0407H122.007L122.055 11.1165L126.438 18.1708L126.398 16.8262V11.0407H127.936V20.9599ZM102.353 20.9599H100.812V12.5329H98.1373V11.0407H105.024V12.5329H102.349V20.9599H102.353ZM96.8816 20.9599H95.3438V11.0407H96.8816V20.9599ZM88.2389 20.9599H86.7011V12.5329H84.0268V11.0407H90.9132V12.5329H88.2389V20.9599ZM83.0533 20.9439H77.1564V11.0407H83.0533V12.5329H78.6982V15.2541H82.6281V16.7304H78.6982V19.4516H83.0533V20.9439ZM111.298 18.6417C111.985 19.3319 112.82 19.6791 113.79 19.6791C114.787 19.6791 115.602 19.3399 116.281 18.6417C116.957 17.9633 117.298 17.0736 117.298 16.0003C117.298 14.9269 116.957 14.0332 116.285 13.3589C115.598 12.6686 114.759 12.3215 113.793 12.3215C112.796 12.3215 111.982 12.6606 111.306 13.3589C110.63 14.0372 110.289 14.9269 110.289 16.0003C110.289 17.0736 110.626 17.9673 111.298 18.6417Z" fill="white"/>
<path fill-rule="evenodd" clip-rule="evenodd" d="M108.564 34.8091C104.809 34.8091 101.765 37.6699 101.765 41.616C101.765 45.5263 104.829 48.423 108.564 48.423C112.32 48.423 115.363 45.5422 115.363 41.616C115.363 37.6699 112.32 34.8091 108.564 34.8091ZM108.564 45.7258C106.51 45.7258 104.742 44.018 104.742 41.6001C104.742 39.1462 106.514 37.4744 108.564 37.4744C110.619 37.4744 112.387 39.1462 112.387 41.6001C112.391 44.034 110.619 45.7258 108.564 45.7258ZM93.7307 34.8091C89.9756 34.8091 86.9318 37.6699 86.9318 41.616C86.9318 45.5263 89.9955 48.423 93.7307 48.423C97.4858 48.423 100.53 45.5422 100.53 41.616C100.53 37.6699 97.4819 34.8091 93.7307 34.8091ZM93.7307 45.7258C91.6764 45.7258 89.9081 44.018 89.9081 41.6001C89.9081 39.1462 91.6803 37.4744 93.7307 37.4744C95.7851 37.4744 97.5534 39.1462 97.5534 41.6001C97.5534 44.034 95.7851 45.7258 93.7307 45.7258ZM76.0798 36.8879V39.7687H82.9661C82.7555 41.3846 82.223 42.5776 81.4084 43.3956C80.3991 44.409 78.8414 45.5103 76.0956 45.5103C71.8637 45.5103 68.5536 42.0789 68.5536 37.8295C68.5536 33.5801 71.8637 30.1487 76.0956 30.1487C78.3805 30.1487 80.0455 31.0544 81.2813 32.2115L83.3158 30.1687C81.5992 28.5168 79.3143 27.252 76.1115 27.252C70.306 27.252 65.4343 32.0001 65.4343 37.8135C65.4343 43.643 70.3021 48.3751 76.1115 48.3751C79.2468 48.3751 81.5992 47.3457 83.4588 45.4066C85.3543 43.5033 85.9543 40.818 85.9543 38.6514C85.9543 37.9771 85.9026 37.3706 85.7953 36.8559H76.0758C76.0798 36.8519 76.0798 36.8879 76.0798 36.8879ZM148.277 39.1302C147.709 37.6021 145.992 34.7931 142.472 34.7931C138.983 34.7931 136.082 37.5502 136.082 41.6001C136.082 45.4225 138.951 48.407 142.809 48.407C145.909 48.407 147.713 46.5038 148.456 45.3866L146.155 43.8385C145.392 44.9756 144.331 45.7218 142.825 45.7218C141.303 45.7218 140.238 45.0275 139.531 43.6589L148.595 39.8884C148.595 39.8923 148.277 39.1302 148.277 39.1302ZM139.034 41.4046C138.963 38.7751 141.069 37.4385 142.575 37.4385C143.763 37.4385 144.752 38.025 145.09 38.8789L139.034 41.4046ZM131.671 48.0001H134.647V28.0021H131.671V48.0001ZM126.784 36.3213H126.676C126.005 35.5193 124.729 34.7931 123.1 34.7931C119.718 34.7931 116.603 37.7816 116.603 41.62C116.603 45.4425 119.703 48.3951 123.1 48.3951C124.709 48.3951 126.005 47.6649 126.676 46.8469H126.784V47.8245C126.784 50.422 125.401 51.8225 123.172 51.8225C121.348 51.8225 120.215 50.5058 119.754 49.4046L117.167 50.4898C117.91 52.2854 119.893 54.5078 123.168 54.5078C126.656 54.5078 129.613 52.445 129.613 47.4135V35.2001H126.8V36.3213C126.803 36.3213 126.784 36.3213 126.784 36.3213ZM123.366 45.7258C121.312 45.7258 119.595 44.0021 119.595 41.62C119.595 39.218 121.312 37.4784 123.366 37.4784C125.401 37.4784 126.978 39.238 126.978 41.62C126.998 44.0021 125.405 45.7258 123.366 45.7258ZM162.213 28.0021H155.096V48.0001H158.072V40.427H162.217C165.511 40.427 168.749 38.029 168.749 34.2225C168.749 30.416 165.523 28.0021 162.213 28.0021ZM162.3 37.634H158.068V30.7712H162.3C164.529 30.7712 165.789 32.6185 165.789 34.2026C165.789 35.7706 164.513 37.634 162.3 37.634ZM180.678 34.7731C178.517 34.7731 176.287 35.7347 175.366 37.8295L178.004 38.9307C178.572 37.8295 179.613 37.4544 180.714 37.4544C182.256 37.4544 183.814 38.3801 183.849 40.032V40.2435C183.317 39.9402 182.149 39.4774 180.75 39.4774C177.901 39.4774 175.012 41.0415 175.012 43.9741C175.012 46.6594 177.348 48.3831 179.951 48.3831C181.95 48.3831 183.051 47.4774 183.738 46.428H183.845V47.9761H186.714V40.3153C186.714 36.7482 184.076 34.7731 180.678 34.7731ZM180.305 45.7258C179.331 45.7258 177.968 45.2469 177.968 44.018C177.968 42.4699 179.669 41.8834 181.119 41.8834C182.431 41.8834 183.051 42.1667 183.829 42.5577C183.615 44.3532 182.105 45.7098 180.305 45.7258ZM197.181 35.2001L193.764 43.8744H193.656L190.116 35.2001H186.913L192.226 47.3258L189.198 54.0649H192.297L200.471 35.2001H197.181ZM170.391 48.0001H173.367V28.0021H170.391V48.0001Z" fill="white"/>
<path fill-rule="evenodd" clip-rule="evenodd" d="M16.6259 12.054C16.1649 12.5528 15.8987 13.3149 15.8987 14.3124V49.6919C15.8987 50.6894 16.1649 51.4515 16.6418 51.9303L16.7649 52.0381L36.5061 32.2156V31.7727L16.749 11.9463L16.6259 12.054Z" fill="url(#paint0_linear)"/>
<path fill-rule="evenodd" clip-rule="evenodd" d="M43.0743 38.843L36.49 32.2315V31.7687L43.0743 25.1572L43.2174 25.245L51.0058 29.6899C53.235 30.9507 53.235 33.0335 51.0058 34.3103L43.2174 38.7552L43.0743 38.843Z" fill="url(#paint1_linear)"/>
<path fill-rule="evenodd" clip-rule="evenodd" d="M43.2174 38.7551L36.49 32L16.6257 51.9461C17.3529 52.7282 18.5728 52.816 19.9358 52.0539L43.2174 38.7551Z" fill="url(#paint2_linear)"/>
<path fill-rule="evenodd" clip-rule="evenodd" d="M43.2174 25.2449L19.9358 11.9661C18.5728 11.1841 17.3489 11.2918 16.6257 12.0738L36.49 32L43.2174 25.2449Z" fill="url(#paint3_linear)"/>
<path opacity="0.2" fill-rule="evenodd" clip-rule="evenodd" d="M43.0744 38.6113L19.9517 51.8024C18.6602 52.5485 17.5079 52.4966 16.7648 51.8183L16.6416 51.942L16.7648 52.0497C17.5079 52.724 18.6602 52.7799 19.9517 52.0338L43.2333 38.755L43.0744 38.6113Z" fill="black"/>
<path opacity="0.12" fill-rule="evenodd" clip-rule="evenodd" d="M51.0057 34.0788L43.0544 38.6115L43.1975 38.7551L50.9859 34.3102C52.1025 33.6718 52.6508 32.8339 52.6508 32C52.5833 32.7661 52.015 33.4923 51.0057 34.0788Z" fill="black"/>
<path opacity="0.25" fill-rule="evenodd" clip-rule="evenodd" d="M19.9359 12.1977L51.0059 29.9213C52.0152 30.4919 52.5835 31.2381 52.6709 32.0002C52.6709 31.1662 52.1225 30.3283 51.0059 29.6899L19.9359 11.9662C17.7067 10.6854 15.8987 11.7548 15.8987 14.3124V14.5438C15.8987 11.9822 17.7067 10.9328 19.9359 12.1977Z" fill="white"/>
<defs>
<linearGradient id="paint0_linear" x1="34.7353" y1="13.9307" x2="3.09627" y2="22.3263" gradientUnits="userSpaceOnUse">
<stop stop-color="#00A0FF"/>
<stop offset="0.00657" stop-color="#00A1FF"/>
<stop offset="0.2601" stop-color="#00BEFF"/>
<stop offset="0.5122" stop-color="#00D2FF"/>
<stop offset="0.7604" stop-color="#00DFFF"/>
<stop offset="1" stop-color="#00E3FF"/>
</linearGradient>
<linearGradient id="paint1_linear" x1="53.9129" y1="32.0002" x2="15.3567" y2="32.0002" gradientUnits="userSpaceOnUse">
<stop stop-color="#FFE000"/>
<stop offset="0.4087" stop-color="#FFBD00"/>
<stop offset="0.7754" stop-color="#FFA500"/>
<stop offset="1" stop-color="#FF9C00"/>
</linearGradient>
<linearGradient id="paint2_linear" x1="39.5593" y1="35.6757" x2="14.0189" y2="78.4861" gradientUnits="userSpaceOnUse">
<stop stop-color="#FF3A44"/>
<stop offset="1" stop-color="#C31162"/>
</linearGradient>
<linearGradient id="paint3_linear" x1="11.6237" y1="0.286079" x2="23.0183" y2="19.4059" gradientUnits="userSpaceOnUse">
<stop stop-color="#32A071"/>
<stop offset="0.0685" stop-color="#2DA771"/>
<stop offset="0.4762" stop-color="#15CF74"/>
<stop offset="0.8009" stop-color="#06E775"/>
<stop offset="1" stop-color="#00F076"/>
</linearGradient>
</defs>
</svg>
