<svg width="25" height="25" viewBox="0 0 25 25" fill="none" xmlns="http://www.w3.org/2000/svg">
<path fill-rule="evenodd" clip-rule="evenodd" d="M24.9155 7.181C24.8243 5.25592 24.3847 3.55069 22.9747 2.14575C21.5701 0.74081 19.8653 0.301097 17.9406 0.204574C15.957 0.0919648 10.0114 0.0919648 8.02782 0.204574C6.10852 0.295734 4.40367 0.735448 2.99369 2.14039C1.5837 3.54532 1.14945 5.25055 1.05294 7.17564C0.94036 9.15971 0.94036 15.1066 1.05294 17.0906C1.14408 19.0157 1.5837 20.721 2.99369 22.1259C4.40367 23.5308 6.10316 23.9706 8.02782 24.0671C10.0114 24.1797 15.957 24.1797 17.9406 24.0671C19.8653 23.9759 21.5701 23.5362 22.9747 22.1259C24.3794 20.721 24.819 19.0157 24.9155 17.0906C25.0281 15.1066 25.0281 9.16508 24.9155 7.181ZM19.3988 7.15955C20.1923 7.15955 20.8356 6.52143 20.8356 5.72244C20.8356 4.92881 20.1923 4.28533 19.3988 4.28533C18.6054 4.28533 17.9621 4.92881 17.9621 5.72244C17.9621 6.51607 18.6 7.15955 19.3988 7.15955ZM12.9869 5.97447C9.57719 5.97447 6.82692 8.72536 6.82692 12.1358C6.82692 15.5463 9.57719 18.2972 12.9869 18.2972C16.3966 18.2972 19.1469 15.5463 19.1469 12.1358C19.1469 8.72536 16.3966 5.97447 12.9869 5.97447ZM12.9869 16.1415C10.7835 16.1415 8.9821 14.3451 8.9821 12.1358C8.9821 9.92653 10.7781 8.13014 12.9869 8.13014C15.1957 8.13014 16.9917 9.92653 16.9917 12.1358C16.9917 14.3451 15.1903 16.1415 12.9869 16.1415ZM20.069 21.5039C21.1251 21.0802 21.9347 20.2705 22.3528 19.2195C22.8909 17.8673 22.8609 14.9094 22.8415 12.992C22.8383 12.674 22.8354 12.3845 22.8354 12.1358C22.8354 11.8871 22.8383 11.5977 22.8415 11.2797C22.8609 9.36336 22.8908 6.40894 22.3528 5.05215C21.9293 3.99576 21.1198 3.18605 20.069 2.76778C18.7128 2.23257 15.7413 2.26108 13.8249 2.27947C13.514 2.28245 13.2308 2.28517 12.9869 2.28517C12.7382 2.28517 12.4489 2.28224 12.131 2.27902C10.215 2.2596 7.26128 2.22967 5.9048 2.76778C4.84865 3.19141 4.03911 4.00112 3.62094 5.05215C3.08585 6.40862 3.11436 9.38083 3.13274 11.2977C3.13572 11.6086 3.13844 11.8918 3.13844 12.1358C3.13844 12.3846 3.13551 12.674 3.13228 12.9919C3.11287 14.9083 3.08295 17.8627 3.62094 19.2195C4.04447 20.2759 4.85401 21.0856 5.9048 21.5039C7.26097 22.0391 10.2325 22.0106 12.1489 21.9922C12.4598 21.9892 12.7429 21.9865 12.9869 21.9865C13.2356 21.9865 13.5249 21.9894 13.8428 21.9926C15.7587 22.012 18.7125 22.042 20.069 21.5039Z" fill="white"/>
</svg>
