<svg width="100" height="100" viewBox="0 0 100 100" fill="none" xmlns="http://www.w3.org/2000/svg">
<circle cx="49.8182" cy="49.8182" r="31.8182" fill="#DFE7F5"/>
<path d="M90.9091 49.9999C90.9091 72.5934 72.5935 90.909 50 90.909C27.4066 90.909 9.09094 72.5934 9.09094 49.9999C9.09094 27.4064 27.4066 9.09082 50 9.09082C72.5935 9.09082 90.9091 27.4064 90.9091 49.9999ZM11.4037 49.9999C11.4037 71.3161 28.6839 88.5963 50 88.5963C71.3162 88.5963 88.5964 71.3161 88.5964 49.9999C88.5964 28.6837 71.3162 11.4036 50 11.4036C28.6839 11.4036 11.4037 28.6837 11.4037 49.9999Z" fill="#DFE7F5"/>
<path d="M100 50C100 77.6142 77.6142 100 50 100C22.3858 100 0 77.6142 0 50C0 22.3858 22.3858 0 50 0C77.6142 0 100 22.3858 100 50ZM2.03997 50C2.03997 76.4876 23.5124 97.96 50 97.96C76.4876 97.96 97.96 76.4876 97.96 50C97.96 23.5124 76.4876 2.03997 50 2.03997C23.5124 2.03997 2.03997 23.5124 2.03997 50Z" fill="#DFE7F5"/>
<path d="M64.5714 38H35.4286C34.7845 38 34.1668 38.2529 33.7113 38.7029C33.2559 39.153 33 39.7635 33 40.4V59.6C33 60.2365 33.2559 60.847 33.7113 61.2971C34.1668 61.7471 34.7845 62 35.4286 62H64.5714C65.2155 62 65.8332 61.7471 66.2887 61.2971C66.7441 60.847 67 60.2365 67 59.6V40.4C67 39.7635 66.7441 39.153 66.2887 38.7029C65.8332 38.2529 65.2155 38 64.5714 38ZM61.9 40.4L50 48.536L38.1 40.4H61.9ZM35.4286 59.6V41.492L49.3079 50.984C49.5111 51.1234 49.7526 51.198 50 51.198C50.2474 51.198 50.4889 51.1234 50.6921 50.984L64.5714 41.492V59.6H35.4286Z" fill="#313D98"/>
</svg>
