<svg width="100" height="100" viewBox="0 0 100 100" fill="none" xmlns="http://www.w3.org/2000/svg">
<circle opacity="0.2" cx="50.0001" cy="50.0001" r="31.8182" fill="#DFE7F5"/>
<path opacity="0.2" d="M90.909 49.9999C90.909 72.5934 72.5934 90.909 49.9999 90.909C27.4064 90.909 9.09082 72.5934 9.09082 49.9999C9.09082 27.4064 27.4064 9.09082 49.9999 9.09082C72.5934 9.09082 90.909 27.4064 90.909 49.9999ZM11.4036 49.9999C11.4036 71.3161 28.6837 88.5963 49.9999 88.5963C71.3161 88.5963 88.5963 71.3161 88.5963 49.9999C88.5963 28.6837 71.3161 11.4036 49.9999 11.4036C28.6837 11.4036 11.4036 28.6837 11.4036 49.9999Z" fill="#DFE7F5"/>
<path opacity="0.2" d="M100 50C100 77.6142 77.6142 100 50 100C22.3858 100 0 77.6142 0 50C0 22.3858 22.3858 0 50 0C77.6142 0 100 22.3858 100 50ZM2.03997 50C2.03997 76.4876 23.5124 97.96 50 97.96C76.4876 97.96 97.96 76.4876 97.96 50C97.96 23.5124 76.4876 2.03997 50 2.03997C23.5124 2.03997 2.03997 23.5124 2.03997 50Z" fill="#DFE7F5"/>
<path d="M50 34C50 34.8177 50 35.6355 50 36.4729C45.0908 36.6051 41.0394 38.4845 37.9421 42.2695C35.6352 45.0883 34.5088 48.3592 34.5003 52.0035C34.4848 59.1761 39.3898 65.365 46.2263 67.0328C53.4453 68.7934 60.5602 65.4958 63.8867 58.8822C66.9678 52.7559 65.4427 45.6058 61.2141 41.3329C60.4892 42.2027 59.7664 43.0703 58.9824 44.0118C58.505 41.4412 58.0416 38.9472 57.5705 36.4117C60.1426 36.4117 62.6773 36.4117 65.2887 36.4117C64.457 37.4158 63.6505 38.3903 62.8334 39.3768C63.1048 39.6798 63.3671 39.9618 63.6181 40.2536C66.0931 43.1392 67.5085 46.4798 67.9093 50.2555C67.936 50.5094 67.9698 50.7618 68.0007 51.0149C68.0007 51.6709 68.0007 52.3277 68.0007 52.9837C67.9241 53.5968 67.8685 54.2134 67.7673 54.8223C67.1373 58.6291 65.4863 61.9281 62.7631 64.664C59.9422 67.4983 56.5412 69.2132 52.5777 69.794C52.0482 69.8713 51.5159 69.9318 50.9844 70C50.3284 70 49.6716 70 49.0156 70C48.4032 69.9234 47.7873 69.8678 47.1784 69.7673C43.3716 69.1366 40.0726 67.4877 37.336 64.7645C34.5017 61.9436 32.7861 58.5433 32.206 54.5798C32.1287 54.0489 32.0682 53.5159 32 52.9844C32 52.3284 32 51.6716 32 51.0156C32.0239 50.8905 32.0562 50.7667 32.071 50.6409C32.1273 50.1529 32.1533 49.6607 32.2334 49.177C32.8641 45.3702 34.5137 42.0712 37.2369 39.3353C40.0578 36.501 43.4588 34.7861 47.4223 34.206C47.9518 34.1287 48.4841 34.0682 49.0156 34C49.344 34 49.6716 34 50 34Z" fill="white" stroke="white" stroke-width="0.5"/>
<path d="M49.9908 41.4645C50.3424 41.4645 50.6946 41.475 51.0455 41.4617C51.3802 41.4483 51.5173 41.6171 51.5194 41.9257C51.5236 42.4299 51.5278 42.934 51.5173 43.4375C51.5131 43.64 51.5665 43.7419 51.7774 43.8157C53.8763 44.5547 55.137 46.3807 55.1011 48.6033C55.0941 49.0442 54.952 49.1693 54.5253 49.1426C53.8587 49.1011 53.1921 49.061 52.5249 49.0414C52.212 49.0322 52.0882 48.8846 52.0636 48.5921C52.0411 48.3256 52.0299 48.05 51.949 47.7982C51.6537 46.8743 50.6827 46.3878 49.6146 46.6029C48.6134 46.804 47.9967 47.5261 48.0108 48.481C48.0178 48.9661 48.2154 49.3275 48.6563 49.5631C49.957 50.2578 51.2283 51.0115 52.5544 51.6542C55.5131 53.0878 55.6017 56.6569 53.8678 58.6967C53.3095 59.3534 52.6289 59.8385 51.8154 60.1205C51.5869 60.1993 51.506 60.3068 51.5152 60.5466C51.5335 61.0261 51.5229 61.5071 51.5201 61.988C51.5173 62.4296 51.416 62.5343 50.9913 62.535C50.3114 62.5371 49.6315 62.5273 48.9523 62.5385C48.6183 62.5442 48.4805 62.3839 48.4784 62.0738C48.4756 61.5696 48.4699 61.0655 48.4805 60.5621C48.4847 60.3603 48.4348 60.2534 48.2203 60.1838C46.1145 59.5046 44.922 57.6504 44.8981 55.3969C44.8931 54.9553 45.0457 54.8302 45.4718 54.8569C46.1384 54.8984 46.8049 54.9378 47.4722 54.9575C47.7851 54.9666 47.9067 55.1157 47.9342 55.4075C47.9602 55.6852 47.9742 55.9728 48.0628 56.2329C48.3736 57.1512 49.3411 57.6139 50.4169 57.3868C51.409 57.1772 52.0144 56.4446 51.9856 55.482C51.9715 55.0109 51.7683 54.6657 51.3387 54.4378C50.026 53.7411 48.7273 53.0168 47.4103 52.3292C45.8311 51.5044 44.9775 50.2219 44.9951 48.4388C45.0134 46.5558 45.874 45.1271 47.5102 44.1785C47.6712 44.085 47.8392 43.9803 48.0171 43.9423C48.3947 43.8607 48.517 43.6582 48.4861 43.2778C48.451 42.8356 48.472 42.3877 48.4798 41.9426C48.4868 41.5763 48.6021 41.4687 48.9706 41.4645C49.3116 41.4617 49.6512 41.4645 49.9908 41.4645Z" fill="white" stroke="white" stroke-width="0.5"/>
</svg>
