<svg width="25" height="21" viewBox="0 0 25 21" fill="none" xmlns="http://www.w3.org/2000/svg">
<path d="M22.2059 5.17338C22.2216 5.38982 22.2216 5.60632 22.2216 5.82277C22.2216 12.4248 17.1201 20.0318 7.79616 20.0318C4.92361 20.0318 2.25516 19.2123 0.010498 17.7899C0.418632 17.8363 0.811015 17.8517 1.23485 17.8517C3.60504 17.8517 5.78694 17.0632 7.5293 15.7181C5.30034 15.6717 3.43241 14.2338 2.78882 12.2547C3.10279 12.3011 3.4167 12.332 3.74637 12.332C4.20156 12.332 4.65681 12.2701 5.0806 12.1619C2.75747 11.6981 1.01506 9.68811 1.01506 7.26067V7.19885C1.69 7.56993 2.47491 7.80184 3.30678 7.83273C1.94115 6.93595 1.04646 5.40529 1.04646 3.6736C1.04646 2.74594 1.29757 1.89556 1.73711 1.15341C4.23292 4.18384 7.9845 6.16286 12.1912 6.37936C12.1128 6.00828 12.0656 5.62179 12.0656 5.23525C12.0656 2.48309 14.326 0.241211 17.1357 0.241211C18.5955 0.241211 19.9141 0.844204 20.8402 1.81827C21.986 1.60182 23.0848 1.18434 24.0581 0.612287C23.6813 1.77192 22.8808 2.74599 21.8291 3.3644C22.8494 3.25622 23.8383 2.97785 24.7487 2.59136C24.0582 3.58085 23.1948 4.46211 22.2059 5.17338Z" fill="white"/>
</svg>
