<svg width="100" height="100" viewBox="0 0 100 100" fill="none" xmlns="http://www.w3.org/2000/svg">
<circle cx="49.8182" cy="49.8182" r="31.8182" fill="#DFE7F5"/>
<path d="M90.9091 49.9999C90.9091 72.5934 72.5935 90.909 50 90.909C27.4066 90.909 9.09094 72.5934 9.09094 49.9999C9.09094 27.4064 27.4066 9.09082 50 9.09082C72.5935 9.09082 90.9091 27.4064 90.9091 49.9999ZM11.4037 49.9999C11.4037 71.3161 28.6839 88.5963 50 88.5963C71.3162 88.5963 88.5964 71.3161 88.5964 49.9999C88.5964 28.6837 71.3162 11.4036 50 11.4036C28.6839 11.4036 11.4037 28.6837 11.4037 49.9999Z" fill="#DFE7F5"/>
<path d="M100 50C100 77.6142 77.6142 100 50 100C22.3858 100 0 77.6142 0 50C0 22.3858 22.3858 0 50 0C77.6142 0 100 22.3858 100 50ZM2.03997 50C2.03997 76.4876 23.5124 97.96 50 97.96C76.4876 97.96 97.96 76.4876 97.96 50C97.96 23.5124 76.4876 2.03997 50 2.03997C23.5124 2.03997 2.03997 23.5124 2.03997 50Z" fill="#DFE7F5"/>
<path d="M36.0975 38.6665V38.6663C36.0975 37.2444 37.2481 36.083 38.6667 36.083H61.3334C62.7536 36.083 63.9167 37.2461 63.9167 38.6663V55.6663C63.9167 57.0866 62.7536 58.2497 61.3334 58.2497H41.5H41.3965L41.3233 58.3229L36.0837 63.5625L36.0975 38.6665ZM61.3334 55.9163H61.5834V55.6663V38.6663V38.4163H61.3334H38.6667H38.4167V38.6663V57.3238V57.9274L38.8435 57.5006L40.4278 55.9163H61.3334Z" fill="#313D98" stroke="#DFE7F5" stroke-width="0.5"/>
<path d="M52.6835 48.016V51.266H43.0669V43.066H52.6835V46.316V46.6281L52.9272 46.4331L56.9335 43.2281V51.1039L52.9272 47.8989L52.6835 47.7039V48.016Z" fill="#313D98" stroke="#DFE7F5" stroke-width="0.3"/>
</svg>
